<?xml version="1.0" encoding="utf-8"?>
<!-- Generator: Adobe Illustrator 23.0.1, SVG Export Plug-In . SVG Version: 6.00 Build 0)  -->
<svg version="1.0" id="Layer_1" xmlns="http://www.w3.org/2000/svg" xmlns:xlink="http://www.w3.org/1999/xlink" x="0px" y="0px"
	 viewBox="0 0 800 600" style="enable-background:new 0 0 800 600;" xml:space="preserve">
<style type="text/css">
	.st0{fill:#FFFFFF;}
</style>
<g>
	<g>
		<path class="st0" d="M204.3,204.8l-36.1,60l-35.9-60c-0.9-1.2-2-1.8-3.3-1.8H92v151.7h39.6v-78l32.4,53.6c0.4,0.8,1,1.3,1.9,1.6
			c0.9,0.3,1.8,0.4,2.5,0.4c0.6,0,1.4-0.1,2.3-0.4c0.9-0.3,1.6-0.8,2-1.6l32.4-53.6v78h39.6V203h-37.3
			C206.3,203,205.3,203.6,204.3,204.8z M316.7,202.9l-56,151.1h42.7l7.8-21.6h46.6l7.8,21.6h42.7l-56-151.1H316.7z M320.1,300
			l14.5-48.1l14.3,48.1H320.1z M530.4,291.8c6.2-4.4,11.1-9.7,14.6-16.2c3.5-6.5,5.3-13.5,5.3-21c0-4.6-0.7-9.3-2.1-14.3
			c-1.4-5-3.3-9.4-5.9-13.2c-2.1-3-4.6-5.9-7.6-8.8c-3-2.9-6.2-5.4-9.8-7.7c-3.5-2.3-7.2-4.2-10.9-5.5c-3.8-1.4-7.5-2.1-11.1-2.1
			h-76.5V354h42.4l-0.2-46.8h25.6l26.3,46.8h45.4L530.4,291.8z M508.5,260.3c-1,2.1-2.4,4.1-4.1,5.7c-1.7,1.6-3.7,2.9-6,3.9
			c-2.3,0.9-4.7,1.4-7.3,1.4h-25.1v-36H491c2.6,0,5,0.4,7.3,1.3c2.3,0.9,4.3,2.2,6,3.8c1.7,1.6,3.1,3.5,4.1,5.7
			c1,2.2,1.5,4.6,1.5,7.2C510,255.7,509.5,258.1,508.5,260.3z M704,299.6c-0.5-3.4-1.5-6.7-2.9-9.7c-1.8-4-4.3-7.5-7.4-10.4
			c-3.1-2.9-6.7-5.5-10.6-7.6c-4-2.2-8.2-4-12.7-5.5c-4.5-1.5-8.9-2.8-13.4-4c-4.6-1.2-8.9-2.2-13.1-3c-4.2-0.8-8-1.7-11.5-2.6
			c-3.5-0.9-6.5-1.9-8.9-3c-2.4-1.1-4.1-2.4-5-3.8c-0.8-1.3-1.2-2.9-1.2-4.7c0-2.5,0.6-4.5,1.8-5.9c1.2-1.5,2.7-2.6,4.5-3.4
			c1.8-0.8,3.8-1.3,5.9-1.5c2.1-0.2,4.2-0.3,6.1-0.3c8.2,0,15.8,1.2,22.9,3.5c7.1,2.3,14.4,5.3,21.9,9c3.1-5.5,6.2-10.9,9.3-16.2
			c3.1-5.3,6.2-10.7,9.5-16.2c-8.8-5.5-18.1-9.5-27.9-11.9c-9.7-2.4-19.6-3.6-29.6-3.6c-6.1,0-12.2,0.5-18.3,1.4
			c-6.1,0.9-11.9,2.5-17.5,4.7c-5.5,2.2-10.6,5.3-15.1,9.2c-4.6,3.9-8.3,8.9-11.1,14.9c-1.4,3-2.5,6.2-3.2,9.5
			c-0.7,3.3-1.1,6.6-1.1,9.9c0,9.4,1.7,16.9,5,22.6c3.3,5.7,7.8,10.2,13.4,13.6c2.7,1.7,5.7,3.2,8.9,4.4c3.2,1.2,6.5,2.4,10,3.4
			c3.4,1,6.9,2,10.5,2.7c3.6,0.8,7.3,1.6,11.1,2.5c2.9,0.7,5.7,1.2,8.6,1.8c2.9,0.5,5.7,1.3,8.4,2.3c1.2,0.4,2.4,0.9,3.7,1.6
			c1.3,0.7,2.5,1.4,3.7,2.3c1.2,0.9,2.1,1.8,2.9,2.9c0.8,1.1,1.2,2.4,1.2,3.8c0,3-0.7,5.3-2,6.9c-1.4,1.6-3.1,2.8-5.2,3.6
			c-2.1,0.8-4.4,1.3-6.9,1.5c-2.5,0.2-4.9,0.3-7.1,0.3c-7.9,0-15.4-0.9-22.5-2.8c-7.1-1.9-14.1-4.6-21.2-8.1
			c-1.6-0.9-3.2-1.7-4.9-2.3c-0.8,1.4-2.1,3.8-4.1,7c-2,3.3-4,6.7-6.2,10.3c-1,1.8-2.1,3.6-3.1,5.3c-1,1.7-1.9,3.3-2.7,4.7
			c-0.8,1.4-1.4,2.5-1.9,3.4c-0.5,0.9-0.8,1.4-0.8,1.6c0,0.3,0.5,0.7,1.6,1.4c1,0.5,1.7,0.8,2,0.8c9.1,4.3,18.6,7.6,28.6,10
			c9.9,2.4,20,3.6,30.1,3.6c8.2,0,16.4-0.7,24.6-2.2c8.2-1.5,15.5-4.1,22-7.8c6.5-3.7,11.8-8.7,15.8-15.1c4-6.4,6-14.5,6-24.4
			C704.8,306.4,704.5,303,704,299.6z M161.1,368.3H145v37.8h14.3c1.3,0,2.6-0.2,3.9-0.6c1.3-0.4,2.7-0.9,4-1.5
			c3.2-1.5,5.5-3.8,7.1-6.7c1.6-2.9,2.3-6.2,2.3-9.8c0-4.8-1.4-9.1-4.2-12.9C169.7,370.9,165.9,368.8,161.1,368.3z M168.4,397.5
			c-2.3,3.1-5.3,4.6-9.2,4.6h-9.7v-29.6h11.3c2.9,0.6,5.4,2.1,7.4,4.4c2,2.3,3.2,4.9,3.4,7.9c0.1,0.7,0.2,1.5,0.2,2.2
			C171.8,390.9,170.6,394.4,168.4,397.5z M237.2,406.2h4.4v-37.8h-4.4V406.2z M324.1,390.7l11.2,0.1c-0.2,1.6-0.6,3-1.3,4.5
			c-0.7,1.4-1.6,2.7-2.9,3.9c-1.2,1.2-2.7,2.1-4.4,2.7c-1.7,0.6-3.5,0.9-5.4,0.9c-2.4,0-4.7-0.5-6.8-1.5c-2.1-1-4.1-2.7-5.9-5
			c-1.8-2.4-2.7-5.3-2.7-8.9c0-3.5,1-6.7,3-9.6c2-2.9,4.7-4.9,8.1-6c1.3-0.3,2.6-0.5,3.8-0.5c2.7,0,5.2,0.6,7.4,1.9
			c2.2,1.3,4.2,3.1,5.7,5.4l3.5-3c-1.8-3.2-4.3-5.3-7.6-6.5c-3.2-1.1-7.1-1.7-11.5-1.7c-4.3,0.5-7.9,2.3-11,5.2
			c-3.1,3-4.9,5.7-5.3,8.2c-0.4,2.5-0.7,4-0.7,4.4c0,0.4,0,1.1,0,1.9c0,3.1,0.6,5.9,1.8,8.6c1.2,2.7,3,5,5.3,7
			c1.8,1.3,3.9,2.3,6.1,3c2.3,0.7,4.6,1,6.9,1c2,0,4-0.3,6-0.8c1.9-0.5,3.7-1.3,5.4-2.4c2.6-2,4.5-4.5,5.7-7.3
			c1.2-2.8,1.7-6,1.7-9.6h-16V390.7z M398.5,406.2h4.4v-37.8h-4.4V406.2z M468.1,372.3H479v33.9h4.7v-33.9h10.9v-4h-26.4V372.3z
			 M560.8,367.2l-16.6,38.9l4.9,0l4.8-11.8h15l4.8,11.8l5.3,0L562,367.2H560.8z M555,391l6.1-16.3l6.3,16.3H555z M637.4,368.3h-4.7
			v37.8h18.6v-4.1h-13.9V368.3z"/>
	</g>
</g>
<path class="st0" d="M50,170.7v259.4h700.1V170.7H50z M738.9,418.9l-677.6,1.5V184.2l677.6-1.5V418.9z"/>
</svg>
